<svg style="" width="70.000000" height="70.000000" version="1.1" xmlns="http://www.w3.org/2000/svg">
<path d="M10.156250 10.312500 C17.031284 3.437466 25.312452 -0.000000 35.000000 -0.000000 C44.687548 -0.000000 52.942674 3.411424 59.765625 10.234375 C66.588576 17.057326 70.000000 25.312452 70.000000 35.000000 C70.000000 44.687548 66.588576 52.942674 59.765625 59.765625 C52.942674 66.588576 44.687548 70.000000 35.000000 70.000000 C25.312452 70.000000 17.057326 66.588576 10.234375 59.765625 C3.411424 52.942674 0.000000 44.687548 0.000000 35.000000 C0.000000 25.312452 3.385383 17.083367 10.156250 10.312500 Z M51.875000 46.718750 L40.156250 35.000000 L52.031250 23.281250 C52.656253 22.656247 52.656253 22.031253 52.031250 21.406250 L48.593750 18.125000 C48.281248 17.812498 47.968752 17.656250 47.656250 17.656250 C47.447916 17.656250 47.187502 17.812498 46.875000 18.125000 L35.000000 29.687500 L23.125000 18.125000 C22.812498 17.812498 22.552084 17.656250 22.343750 17.656250 C22.031248 17.656250 21.718752 17.812498 21.406250 18.125000 L18.125000 21.406250 C17.499997 22.031253 17.499997 22.656247 18.125000 23.281250 L30.000000 35.000000 L18.125000 46.875000 C17.916666 46.979167 17.812500 47.239581 17.812500 47.656250 C17.812500 48.072919 17.916666 48.385416 18.125000 48.593750 L21.406250 52.031250 C21.614584 52.239584 21.927081 52.343750 22.343750 52.343750 C22.760419 52.343750 23.072916 52.239584 23.281250 52.031250 L35.000000 40.156250 L46.875000 51.875000 C47.187502 52.187502 47.447916 52.343750 47.656250 52.343750 C47.968752 52.343750 48.281248 52.187502 48.593750 51.875000 L51.875000 48.593750 C52.187502 48.385416 52.343750 48.072919 52.343750 47.656250 C52.343750 47.343748 52.187502 47.031252 51.875000 46.718750 Z M70.000000 64.843750" style="fill:black"/>
</svg>